<?xml version="1.0" standalone="no"?><!DOCTYPE svg PUBLIC "-//W3C//DTD SVG 1.1//EN" "http://www.w3.org/Graphics/SVG/1.1/DTD/svg11.dtd"><svg t="1569632725941" class="icon" viewBox="0 0 1024 1024" version="1.1" xmlns="http://www.w3.org/2000/svg" p-id="1236" xmlns:xlink="http://www.w3.org/1999/xlink" width="200" height="200"><defs><style type="text/css"></style></defs><path d="M702.44 111.98l-190.45 89.63-224.06-89.63L63.86 242.74v675.87L287.93 829l224.06 44.81L736.07 829l224.06 44.81V217.06L702.44 111.98z m168.08 672.2l-134.44-44.81L512 784.18l-224.06-44.81-134.44 44.81V291.23l134.44-89.62 201.66 94.26 201.65-94.26 179.26 44.81v537.76zM287.93 649.74h44.82V336.05h-44.82v313.69z m179.27 44.82h44.81v-313.7H467.2v313.7z m224.05-44.82h44.82V336.05h-44.82v313.69z" p-id="1237" fill="#1296db"></path></svg>