<?xml version="1.0" standalone="no"?><!DOCTYPE svg PUBLIC "-//W3C//DTD SVG 1.1//EN" "http://www.w3.org/Graphics/SVG/1.1/DTD/svg11.dtd"><svg t="1569632919802" class="icon" viewBox="0 0 1024 1024" version="1.1" xmlns="http://www.w3.org/2000/svg" p-id="2609" xmlns:xlink="http://www.w3.org/1999/xlink" width="200" height="200"><defs><style type="text/css"></style></defs><path d="M254.976 320h512c35.328 0 64-28.672 64-64V64c0-35.328-28.672-64-64-64h-512c-35.328 0-64 28.672-64 64V256c0 35.328 28.672 64 64 64z m-14.848 399.872H64c-35.328 0-64 28.672-64 64v176.128c0 35.328 28.672 64 64 64h176.128c35.328 0 64-28.672 64-64v-176.128c0-35.328-28.672-64-64-64z m359.936 0H423.936c-35.328 0-64 28.672-64 64v176.128c0 35.328 28.672 64 64 64h176.128c35.328 0 64-28.672 64-64v-176.128c0-35.328-28.672-64-64-64z m359.936 0h-176.128c-35.328 0-64 28.672-64 64v176.128c0 35.328 28.672 64 64 64h176.128c35.328 0 64-28.672 64-64v-176.128c0-35.328-28.672-64-64-64zM150.016 664.576c13.312 0 24.064-10.752 24.064-24.064V503.808h313.856V640c0 13.312 10.752 24.064 24.064 24.064s24.064-10.752 24.064-24.064V503.808H849.92V640c0 13.312 10.752 24.064 24.064 24.064s24.064-10.752 24.064-24.064V480.256c0-13.312-10.752-24.064-24.064-24.064h-337.92V384c0-13.312-10.752-24.064-24.064-24.064s-24.064 10.752-24.064 24.064v72.192h-337.92c-13.312 0-24.064 10.752-24.064 24.064v160.768c0 12.8 10.752 23.552 24.064 23.552z" p-id="2610" fill="#1296db"></path></svg>