<?xml version="1.0" standalone="no"?><!DOCTYPE svg PUBLIC "-//W3C//DTD SVG 1.1//EN" "http://www.w3.org/Graphics/SVG/1.1/DTD/svg11.dtd"><svg t="1569633212306" class="icon" viewBox="0 0 1024 1024" version="1.1" xmlns="http://www.w3.org/2000/svg" p-id="2782" xmlns:xlink="http://www.w3.org/1999/xlink" width="200" height="200"><defs><style type="text/css"></style></defs><path d="M256 448 256 384l278.016 0C508.096 402.176 484.608 423.616 464.448 448L256 448zM397.568 768c6.336 22.336 14.784 43.712 25.152 64L39.488 832C14.72 832 0 835.008 0 810.24L0 359.68 0 320 0 256 0 195.84 0 70.4C0 44.288 15.872 0 42.048 0l353.28 0C421.44 0 448 44.288 448 70.4L448 128l461.888 0C934.592 128 960 171.136 960 195.84l0 204.608c-19.584-16.192-41.152-30.016-64-41.728L896 320l-160 0L64 320l0 39.68L64 768 397.568 768zM64 256l832 0L896 192 442.688 192 384 192 384 151.04 384 64 64 64l0 131.84L64 256zM956.864 704c-5.312 64-19.648 72.064-41.408 101.376l46.912 46.4-45.44 45.44-46.848-46.784C840.768 872.512 832 887.232 768 892.736L768 960l-64 0 0-67.264c-64-5.504-72.768-20.224-102.08-42.304l-46.848 46.848-45.44-45.312 46.912-46.656C534.784 776.064 520.384 768 515.136 704L448 704l0-64 67.328 0c5.632-64 20.352-72.448 42.24-101.504l-47.936-48.64 45.44-45.44 48.128 48.064C632.256 470.976 640 456.64 704 451.264L704 384l64 0 0 67.264c64 5.44 71.744 19.84 100.8 41.408l48.128-48 45.44 45.568-47.936 48.256C936.256 567.552 950.976 576 956.672 640L1024 640l0 64L956.864 704zM892.864 702.976C894.848 692.928 896 682.624 896 672c0-11.456-1.28-22.528-3.584-33.28-4.288-20.096-12.288-38.848-23.424-55.424-12.032-17.984-27.648-33.216-45.76-45.12-16.512-10.816-35.072-18.816-55.104-22.912C757.76 513.152 747.008 512 736 512s-21.76 1.152-32.128 3.264c-20.032 4.096-38.528 12.096-55.104 22.912C630.656 550.016 615.04 565.312 603.008 583.296 591.936 599.808 583.872 618.56 579.584 638.72 577.28 649.472 576 660.544 576 672c0 10.624 1.152 20.928 3.136 30.976 4.032 20.416 12.032 39.424 23.04 56.256 11.84 18.112 27.136 33.728 45.12 45.76 16.896 11.328 36.032 19.52 56.576 23.744C714.24 830.848 724.992 832 736 832s21.76-1.152 32.128-3.264c20.608-4.224 39.68-12.416 56.576-23.744 17.984-12.032 33.216-27.648 45.12-45.76C880.832 742.336 888.832 723.392 892.864 702.976z" p-id="2783" fill="#1296db"></path></svg>